<?xml version="1.0" encoding="utf-8"?>
<!-- Svg Vector Icons : http://www.onlinewebfonts.com/icon -->
<!DOCTYPE svg PUBLIC "-//W3C//DTD SVG 1.1//EN" "http://www.w3.org/Graphics/SVG/1.1/DTD/svg11.dtd">
<svg version="1.1" xmlns="http://www.w3.org/2000/svg" xmlns:xlink="http://www.w3.org/1999/xlink" x="0px" y="0px" viewBox="0 0 1000 1000" enable-background="new 0 0 1000 1000" xml:space="preserve">
<metadata> Svg Vector Icons : http://www.onlinewebfonts.com/icon </metadata>
<g><g transform="translate(0.000000,511.000000) scale(0.100000,-0.100000)"><path d="M3044.8,4307.4c-33.8-14.5-86.9-48.3-115.9-77.2c-125.5-118.3-125.5-108.6-125.5-1221.4V1970.8l-639.7-7.2c-622.8-7.2-639.7-9.6-692.8-60.3c-48.3-50.7-50.7-60.4-16.9-125.5C1485.5,1710.1,3151,61.5,3184.8,61.5c9.7,2.4,405.5,383.8,881,852.1c569.7,562.4,861.7,866.6,861.7,897.9c-2.4,137.6-89.3,154.5-789.3,156.9h-560l-7.2,1045.2c-7.2,1037.9-7.2,1042.8-62.7,1132.1C3416.5,4295.3,3201.7,4370.1,3044.8,4307.4z"/><path d="M5967.9,2229.1c-60.3-31.4-130.3-86.9-156.9-123.1c-50.7-67.6-50.7-96.6-57.9-1612.4l-4.8-1542.4H3346.6H944.8v767.6c0,480.4-9.7,801.4-26.6,861.7c-53.1,188.3-275.2,328.3-463.4,292.1c-125.5-24.1-239-111-299.3-231.7L100,534.6v-1771.7v-1771.7l70-70l70-70h364.5h362.1l14.5,89.3c62.8,407.9,164.1,622.8,405.5,861.7c202.8,200.3,352.4,287.2,610.7,352.4c470.7,120.7,939-9.6,1289-362.1c226.9-226.9,386.2-579.3,386.2-849.7v-91.7h1267.2h1267.2v103.8c0,282.4,149.7,603.4,398.3,849.7c531,531,1354.1,531,1882.8,0c246.2-246.2,398.3-572.1,398.3-854.5v-99h436.9H9760l70,70l70,70v388.6c0,231.7-9.7,410.3-26.5,444.1c-29,62.8-113.5,113.4-190.7,113.4c-48.3,0-48.3,26.6-50.7,1250.3c0,1115.2-4.8,1260-41,1349.3c-57.9,147.2-1190,1624.5-1289,1684.8c-74.8,45.9-127.9,48.3-1153.8,55.5l-1074.1,7.3L5967.9,2229.1z M7751.7,1509.8c48.3-12.1,120.7-57.9,161.7-101.4c74.8-77.2,755.5-999.3,755.5-1021c0-7.2-456.2-12.1-1013.8-12.1H6641.4v579.3v579.3h514.1C7435.5,1533.9,7705.9,1521.9,7751.7,1509.8z"/><path d="M2079.3-2217.1c-480.3-140-784.5-610.7-700-1081.4c115.9-634.8,774.8-987.2,1342.1-721.7c207.6,96.6,379,263.1,475.5,458.6c72.4,149.6,77.2,176.2,77.2,412.8c0,239-4.8,265.5-79.6,415.2c-101.4,205.2-311.4,405.5-504.5,477.9C2518.6-2190.5,2233.8-2171.2,2079.3-2217.1z M2492.1-2873.7c70-33.8,164.1-193.1,166.6-272.8c0-72.4-99-234.1-166.6-275.2c-169-99-395.9-16.9-461,171.4c-31.4,89.3-31.4,113.5,0,202.8C2096.2-2861.6,2313.5-2779.5,2492.1-2873.7z"/><path d="M7261.7-2229.2c-263.1-86.9-461-258.3-581.7-509.3c-70-144.8-74.8-176.2-74.8-410.3c0-224.5,7.2-267.9,65.2-393.4c135.2-287.2,417.6-502.1,733.8-555.2c403.1-70,837.6,166.5,1018.6,555.2c57.9,125.5,65.2,169,65.2,393.4c0,229.3-7.2,267.9-70,405.5c-91.7,197.9-318.6,412.8-514.1,487.6C7708.3-2178.5,7442.8-2168.8,7261.7-2229.2z M7717.9-2880.9c77.2-48.3,154.5-178.6,154.5-267.9c0-29-19.3-91.7-41-137.6c-111-234.2-458.6-234.2-569.6,0c-50.7,106.2-50.7,169,0,275.2c50.7,108.6,161.7,176.2,284.8,176.2C7599.7-2835,7676.9-2856.7,7717.9-2880.9z"/></g></g>
</svg>